HIERARCHY
ROOT Hips
{
     OFFSET 2.00946 97.91640 -87.45170
     CHANNELS 6 Xposition Yposition Zposition Zrotation Xrotation Yrotation
     JOINT Spine
     {
          OFFSET -0.00000 11.89050 -0.00000
          CHANNELS 3 Zrotation Xrotation Yrotation
          JOINT Spine1
          {
               OFFSET 0.00000 25.65740 0.12766
               CHANNELS 3 Zrotation Xrotation Yrotation
               JOINT HEad
               {
                    OFFSET 0.00000 8.73416 0.01134
                    CHANNELS 3 Zrotation Xrotation Yrotation
                    End Site
                    {
                         OFFSET -0.29000 12.77420 2.51395
                    }
               }
               JOINT LeftShoulder1
               {
                    OFFSET 8.99000 -0.36225 -0.22000
                    CHANNELS 3 Zrotation Xrotation Yrotation
                    JOINT LeftArm
                    {
                         OFFSET 10.28270 -0.00338 0.32212
                         CHANNELS 3 Zrotation Xrotation Yrotation
                         JOINT LeftForeArm
                         {
                              OFFSET 32.76690 0.09914 -1.42434
                              CHANNELS 3 Zrotation Xrotation Yrotation
                              JOINT LeftHand
                              {
                                   OFFSET 27.56430 0.08536 1.02216
                                   CHANNELS 3 Zrotation Xrotation Yrotation
                                   End Site
                                   {
                                        OFFSET 16.74430 -0.60000 1.50291
                                   }
                              }
                         }
                    }
               }
               JOINT RightShoulder
               {
                    OFFSET -8.99000 -0.36225 -0.22000
                    CHANNELS 3 Zrotation Xrotation Yrotation
                    JOINT RightArm
                    {
                         OFFSET -10.28270 -0.00338 0.32212
                         CHANNELS 3 Zrotation Xrotation Yrotation
                         JOINT RightForeArm
                         {
                              OFFSET -32.89710 0.09914 -1.42434
                              CHANNELS 3 Zrotation Xrotation Yrotation
                              JOINT RightHand
                              {
                                   OFFSET -27.49210 0.08536 1.02216
                                   CHANNELS 3 Zrotation Xrotation Yrotation
                                   End Site
                                   {
                                        OFFSET -16.63120 -0.60000 1.50291
                                   }
                              }
                         }
                    }
               }
          }
     }
     JOINT LeftUpLeg
     {
          OFFSET 8.94580 -8.66707 0.10165
          CHANNELS 3 Zrotation Xrotation Yrotation
          JOINT LeftLeg
          {
               OFFSET -0.00000 -44.42270 1.37270
               CHANNELS 3 Zrotation Xrotation Yrotation
               JOINT LeftFoot
               {
                    OFFSET -0.25355 -42.09240 -1.46059
                    CHANNELS 3 Zrotation Xrotation Yrotation
                    JOINT LeftToes
                    {
                         OFFSET -0.04000 -4.41509 8.49910
                         CHANNELS 3 Zrotation Xrotation Yrotation
                         End Site
                         {
                              OFFSET 0.08000 -0.04745 9.77979
                         }
                    }
               }
          }
     }
     JOINT RightUpLeg
     {
          OFFSET -8.94580 -8.66707 0.10165
          CHANNELS 3 Zrotation Xrotation Yrotation
          JOINT RightLeg
          {
               OFFSET 0.00000 -44.42270 1.37270
               CHANNELS 3 Zrotation Xrotation Yrotation
               JOINT RightFoot
               {
                    OFFSET 0.25355 -42.09240 -1.46059
                    CHANNELS 3 Zrotation Xrotation Yrotation
                    JOINT RightToes
                    {
                         OFFSET 0.04000 -4.41509 8.49910
                         CHANNELS 3 Zrotation Xrotation Yrotation
                         End Site
                         {
                              OFFSET -0.08000 -0.13745 9.77979
                         }
                    }
               }
          }
     }
}
MOTION
Frames: 19
Frame Time: 0.01667
5.87329 91.19010 16.22040 3.93286 -3.14876 -46.03700 -5.59704 8.39913 4.83007 -9.81018 16.31870 9.66161 10.97470 -7.03822 33.50700 -0.00000 -0.00000 0.00000 -51.48220 -70.41290 -49.05000 -18.81200 29.92630 -85.20920 5.55594 9.67997 -0.87718 17.75630 1.36466 4.29490 30.22250 -42.57640 35.36390 14.94560 34.12140 111.98000 -5.55712 9.68432 0.87760 11.01010 -27.02570 3.21388 9.29769 26.66100 -36.82990 -28.34760 -9.77571 -0.49694 2.09814 -8.90706 -12.30670 -18.04890 -7.24276 -3.80415 4.42772 52.67750 1.95545 27.54050 -35.62190 6.91215 -3.34642 -2.96261 3.79737 
5.67814 92.15190 17.36490 4.11033 -2.75325 -45.10380 -5.23881 7.76744 4.99602 -9.29803 15.07720 9.89231 10.54200 -4.91289 32.43440 -0.00000 -0.00000 0.00000 -61.14360 -72.23530 -59.38920 -20.05650 31.10960 -86.74280 5.55594 9.67997 -0.87718 16.17900 1.20587 3.91172 34.94480 -44.31890 41.32280 17.09520 35.60680 109.19500 -5.55712 9.68432 0.87760 10.36390 -25.85850 2.72662 8.73160 24.39820 -36.57140 -28.07020 -9.49030 -0.42096 2.14036 -7.57738 -11.92740 -17.92200 -4.94925 -2.65966 4.75252 48.81660 0.94896 27.44590 -34.10720 6.47762 -3.23021 -2.87470 3.65443 
5.49825 93.01840 18.43210 4.10029 -2.39602 -44.12360 -4.76674 7.17586 5.09513 -8.59425 13.93290 9.98871 9.92096 -2.55794 31.63610 -0.00000 -0.00000 0.00000 -73.15740 -73.11460 -72.92920 -21.15970 31.91540 -86.78200 5.55594 9.67997 -0.87718 14.73350 1.07387 3.58083 40.25990 -45.45030 47.97690 19.10200 36.90730 106.34300 -5.55712 9.68432 0.87760 9.85425 -24.66710 2.23683 8.26640 22.27780 -36.49110 -27.71250 -9.10152 -0.32020 2.14734 -6.59220 -11.53980 -17.89130 -2.70840 -1.85945 5.25567 45.27330 0.21581 27.28990 -32.44170 5.99530 -3.00569 -2.59824 3.58156 
5.33840 93.79130 19.42480 3.93011 -2.09566 -43.14170 -4.20658 6.63092 5.13586 -7.74919 12.89430 9.97780 9.14504 -0.15453 31.06060 -0.00000 -0.00000 0.00000 -84.59240 -72.60310 -86.46970 -21.91740 32.27150 -85.70260 5.55594 9.67997 -0.87718 13.41210 0.96389 3.29593 45.97660 -45.76590 55.03570 20.85490 37.97860 103.47400 -5.55712 9.68432 0.87760 9.47588 -23.47020 1.79718 7.88327 20.34930 -36.58150 -27.27510 -8.66643 -0.21029 2.13097 -5.86503 -11.15710 -17.93200 -0.54468 -1.36005 5.89844 42.01400 -0.30132 27.09010 -30.62760 5.47447 -2.79220 -2.31838 3.54412 
5.20191 94.47150 20.34190 3.63914 -1.87202 -42.20960 -3.61045 6.14125 5.13154 -6.82237 11.96890 9.89102 8.25569 2.13373 30.65250 -0.00000 -0.00000 0.00000 -92.45460 -70.98460 -96.72460 -22.18280 32.20590 -84.01480 5.55594 9.67997 -0.87718 12.19420 0.87104 3.04875 51.76620 -45.15930 62.05670 22.24120 38.79790 100.66200 -5.55712 9.68432 0.87760 9.20597 -22.28790 1.42790 7.56501 18.65470 -36.79850 -26.77580 -8.24449 -0.10680 2.10356 -5.29174 -10.79480 -18.01730 1.51154 -1.06138 6.60236 39.03490 -0.66923 26.89580 -28.68080 4.93339 -2.68334 -2.18175 3.51363 
5.09180 95.06030 21.18230 3.26906 -1.73773 -41.37850 -3.02626 5.71342 5.09895 -5.86793 11.16150 9.76178 7.29388 4.18225 30.36700 -0.00000 -0.00000 0.00000 -96.30530 -68.88690 -102.97800 -21.96090 31.83680 -82.17530 5.55594 9.67997 -0.87718 11.05800 0.79144 2.83243 57.25420 -43.66830 68.55710 23.16340 39.37200 98.01680 -5.55712 9.68432 0.87760 9.01574 -21.14610 1.11680 7.29662 17.23630 -37.06830 -26.23590 -7.88863 -0.02238 2.07460 -4.78452 -10.46510 -18.11700 3.42199 -0.84460 7.26219 36.36010 -0.94190 26.77370 -26.64210 4.39543 -2.73092 -2.27216 3.47006 
5.01039 95.56180 21.94640 2.86054 -1.69739 -40.68980 -2.48982 5.35118 5.05509 -4.93124 10.47400 9.62199 6.29692 5.91401 30.17850 -0.00000 -0.00000 0.00000 -97.26850 -66.79110 -106.12400 -21.39200 31.31280 -80.49080 5.55594 9.67997 -0.87718 9.99256 0.72268 2.64309 62.14540 -41.46910 74.16130 23.57180 39.73500 95.65990 -5.55712 9.68432 0.87760 8.87334 -20.06620 0.83035 7.06365 16.11610 -37.30390 -25.67580 -7.62785 0.03713 2.04904 -4.29466 -10.17370 -18.20340 5.14581 -0.60582 7.77040 34.02620 -1.15810 26.78570 -24.57540 3.88252 -2.94119 -2.60700 3.39529 
4.95913 95.98340 22.63610 2.44969 -1.74750 -40.16800 -2.02037 5.05440 5.01431 -4.04733 9.90439 9.49797 5.29828 7.29670 30.07860 -0.00000 -0.00000 0.00000 -96.57210 -64.92390 -107.22500 -20.67580 30.76540 -79.12050 5.55594 9.67997 -0.87718 9.00707 0.66387 2.48015 66.28190 -38.82400 78.68240 23.49210 39.93340 93.68680 -5.55712 9.68432 0.87760 8.74877 -19.06470 0.53115 6.85168 15.29220 -37.42890 -25.11150 -7.46384 0.07278 2.02733 -3.81799 -9.91866 -18.25670 6.64771 -0.27852 8.04497 32.06690 -1.34690 26.96810 -22.55860 3.41065 -3.28484 -3.15127 3.27211 
4.93838 96.33270 23.25440 2.06664 -1.87870 -39.81670 -1.62471 4.81948 4.98643 -3.24231 9.44697 9.40731 4.32970 8.33457 30.06790 -0.00000 -0.00000 0.00000 -95.11940 -63.33380 -107.08700 -19.99820 30.29050 -78.12360 5.55594 9.67997 -0.87718 8.13334 0.61530 2.34544 69.62270 -36.01440 82.10990 23.02750 40.01200 92.13900 -5.55712 9.68432 0.87760 8.61640 -18.15570 0.19301 6.64693 14.74480 -37.39790 -24.55250 -7.37794 0.09009 2.00668 -3.38463 -9.69133 -18.27030 7.90580 0.15931 8.05081 30.50100 -1.53517 27.31980 -20.67060 2.98891 -3.71292 -3.83835 3.08866 
4.94737 96.61650 23.80370 1.73458 -2.07836 -39.62080 -1.30398 4.64040 4.97609 -2.53541 9.09205 9.35754 3.42185 9.05871 30.14590 -0.00000 -0.00000 0.00000 -93.50740 -61.97780 -106.26900 -19.48770 29.94740 -77.50470 5.55594 9.67997 -0.87718 7.41921 0.57790 2.24183 72.19190 -33.28830 84.55000 22.32920 40.00540 90.99840 -5.55712 9.68432 0.87760 8.45652 -17.35450 -0.19040 6.43852 14.44640 -37.20600 -24.00040 -7.34419 0.09569 1.98279 -3.03756 -9.47878 -18.25270 8.91632 0.69066 7.80746 29.32510 -1.75117 27.79940 -18.97920 2.62106 -4.17188 -4.59131 2.84170 
4.98445 96.83900 24.28490 1.46803 -2.33303 -39.55210 -1.05802 4.50995 4.98312 -1.93988 8.82726 9.34669 2.60254 9.51820 30.30280 -0.00000 -0.00000 0.00000 -92.10510 -60.78120 -105.15500 -19.20300 29.76180 -77.23940 5.55594 9.67997 -0.87718 6.91400 0.55261 2.17195 74.04090 -30.82850 86.16290 21.55270 39.93830 90.20260 -5.55712 9.68432 0.87760 8.25674 -16.67550 -0.60407 6.22150 14.36800 -36.88670 -23.45080 -7.34232 0.09450 1.95193 -2.80833 -9.26747 -18.22550 9.69404 1.27294 7.38216 28.51180 -2.02324 28.33320 -17.52910 2.30708 -4.61742 -5.34308 2.53761 
5.04748 97.00350 24.69820 1.27133 -2.62986 -39.57670 -0.88602 4.42060 5.00361 -1.46247 8.63882 9.36556 1.89206 9.77368 30.51820 -0.00000 -0.00000 0.00000 -91.10730 -59.67240 -103.99300 -19.14170 29.73210 -77.28380 5.55594 9.67997 -0.87718 6.65119 0.53988 2.13730 75.23570 -28.74230 87.12090 20.81810 39.82710 89.66950 -5.55712 9.68432 0.87760 8.01274 -16.12830 -1.01617 5.99974 14.48100 -36.49990 -22.89700 -7.36712 0.08800 1.91225 -2.69675 -9.04507 -18.21680 10.26820 1.85355 6.87130 28.01420 -2.37335 28.82980 -16.33870 2.04462 -5.02155 -6.04839 2.18936 
5.13422 97.11250 25.04330 1.13813 -2.95764 -39.66360 -0.78506 4.36519 5.03148 -1.10219 8.51314 9.40101 1.29788 9.89139 30.76500 -0.00000 -0.00000 0.00000 -90.57340 -58.59740 -102.92600 -19.26020 29.83580 -77.57770 5.55594 9.67997 -0.87718 6.63448 0.53931 2.13739 75.53760 -26.95830 87.49630 20.09380 39.37410 89.38480 -5.55712 9.68432 0.87760 7.72807 -15.71250 -1.38625 5.78688 14.75640 -36.11630 -22.33420 -7.43135 0.07414 1.86415 -2.66289 -8.80121 -18.25450 10.67580 2.38366 6.37579 27.77460 -2.80879 29.20210 -15.40370 1.83019 -5.37361 -6.68540 1.81458 
5.24252 97.16910 25.32000 1.05339 -3.30788 -39.79060 -0.74907 4.33768 5.06032 -0.85005 8.43862 9.43940 0.81166 9.93832 31.01600 -0.00000 -0.00000 0.00000 -90.46640 -57.52460 -102.01300 -19.49720 30.03910 -78.04750 5.55594 9.67997 -0.87718 6.83291 0.54946 2.16893 74.68060 -25.32240 87.36190 19.29570 38.20690 89.33510 -5.55712 9.68432 0.87760 7.41218 -15.41490 -1.67549 5.60407 15.16440 -35.79990 -21.76070 -7.56177 0.04850 1.80943 -2.63504 -8.52687 -18.35920 10.95550 2.82732 5.97653 27.73520 -3.31427 29.38930 -14.70630 1.66046 -5.67514 -7.24825 1.43477 
5.37017 97.17710 25.52810 0.99743 -3.67543 -39.94750 -0.76884 4.33353 5.08487 -0.69018 8.40673 9.46944 0.40954 9.97647 31.25170 -0.00000 -0.00000 0.00000 -90.69070 -56.44420 -101.25300 -19.79190 30.30460 -78.61480 5.55594 9.67997 -0.87718 7.18659 0.56784 2.22531 73.79170 -24.09280 87.10610 18.69400 37.28760 89.26430 -5.55712 9.68432 0.87760 7.07738 -15.21200 -1.85689 5.47449 15.67540 -35.59350 -21.17830 -7.78947 0.00648 1.74997 -2.53156 -8.21450 -18.54010 11.14110 3.16615 5.71712 27.84720 -3.84980 29.37130 -14.22450 1.53282 -5.93565 -7.74068 1.07525 
5.51487 97.14080 25.66780 0.95032 -4.05815 -40.13520 -0.83193 4.34969 5.10195 -0.60205 8.41220 9.48383 0.05719 10.05780 31.46470 -0.00000 -0.00000 0.00000 -91.12870 -55.36400 -100.60900 -20.09680 30.59870 -79.20530 5.55594 9.67997 -0.87718 7.62056 0.59116 2.29681 72.85830 -23.12980 86.77410 18.19570 36.48750 89.17100 -5.55712 9.68432 0.87760 6.73626 -15.07520 -1.92240 5.41655 16.26260 -35.50880 -20.58900 -8.13705 -0.05436 1.68674 -2.29183 -7.86074 -18.79400 11.25870 3.39956 5.59773 28.07510 -4.35574 29.16960 -13.93460 1.44488 -6.17244 -8.17581 0.76362 
5.67416 97.06420 25.74070 0.89474 -4.45462 -40.36230 -0.92026 4.38360 5.11060 -0.56273 8.45173 9.47961 -0.28338 10.21920 31.65970 -0.00000 -0.00000 0.00000 -91.66610 -54.30360 -100.02800 -20.38240 30.89560 -79.75870 5.55594 9.67997 -0.87718 8.06091 0.61568 2.37193 71.88230 -22.29620 86.41580 17.72430 35.69090 89.05020 -5.55712 9.68432 0.87760 6.40100 -14.97860 -1.88505 5.43836 16.90680 -35.52600 -19.99260 -8.60944 -0.13295 1.61971 -1.90121 -7.47005 -19.10550 11.32450 3.54182 5.58160 28.39760 -4.76452 28.83620 -13.81060 1.39329 -6.41272 -8.57985 0.52612 
5.84467 96.95400 25.74910 0.82158 -4.86494 -40.63870 -1.02058 4.43358 5.11114 -0.55378 8.52366 9.45742 -0.64555 10.47930 31.85030 -0.00000 -0.00000 0.00000 -92.20700 -53.28670 -99.45160 -20.63570 31.17940 -80.23610 5.55594 9.67997 -0.87718 8.44989 0.63801 2.43967 70.88050 -21.48060 86.07700 17.23050 34.82010 88.89680 -5.55712 9.68432 0.87760 6.07818 -14.89460 -1.77593 5.53484 17.57640 -35.59820 -19.39240 -9.17926 -0.22271 1.54886 -1.40398 -7.05746 -19.45370 11.34890 3.61869 5.61058 28.79680 -5.01995 28.43400 -13.81880 1.37206 -6.69132 -8.99079 0.38272 
6.02249 96.81850 25.69770 0.72802 -5.28657 -40.97040 -1.12018 4.49738 5.10445 -0.55959 8.62529 9.41991 -1.05186 10.83660 32.05290 -0.00000 -0.00000 0.00000 -92.68000 -52.33430 -98.82610 -20.85500 31.44230 -80.62290 5.55594 9.67997 -0.87718 8.75414 0.65567 2.49159 69.88050 -20.61300 85.79160 16.69680 33.84680 88.71000 -5.55712 9.68432 0.87760 5.77200 -14.80140 -1.63589 5.68972 18.23710 -35.66630 -18.79410 -9.79441 -0.31378 1.47568 -0.89461 -6.64832 -19.81530 11.33780 3.66081 5.62574 29.25330 -5.08982 28.01810 -13.92230 1.37372 -7.03909 -9.44549 0.34266 
